<svg width="47" height="60" viewBox="0 0 47 60" fill="none" xmlns="http://www.w3.org/2000/svg">
<path d="M46.4688 45.5092V58.4373C46.468 58.7271 46.3525 59.0048 46.1475 59.2098C45.9426 59.4147 45.6649 59.5302 45.375 59.5311H1.62505C1.33523 59.5302 1.05751 59.4147 0.852576 59.2098C0.647639 59.0048 0.532137 58.7271 0.5313 58.4373V45.5092C0.524844 43.2734 1.14428 41.0804 2.31951 39.1784C3.49474 37.2763 5.17886 35.7412 7.1813 34.7467L12.0704 32.3076H34.9297L39.8188 34.7467C41.8212 35.7412 43.5054 37.2763 44.6806 39.1784C45.8558 41.0804 46.4753 43.2734 46.4688 45.5092Z" fill="#262626"/>
<path d="M28.3545 24.5312H18.6475C18.0434 24.5312 17.5537 25.0209 17.5537 25.625V34.375C17.5537 34.9791 18.0434 35.4688 18.6475 35.4688H28.3545C28.9586 35.4688 29.4482 34.9791 29.4482 34.375V25.625C29.4482 25.0209 28.9586 24.5312 28.3545 24.5312Z" fill="#FAFCF8"/>
<path d="M35.094 11.3098C34.8969 8.3693 33.5897 5.61361 31.4373 3.60062C29.2848 1.58763 26.4478 0.467773 23.5007 0.467773C20.5536 0.467773 17.7167 1.58763 15.5642 3.60062C13.4117 5.61361 12.1046 8.3693 11.9074 11.3098L11.5806 16.177C11.5668 16.3812 11.6107 16.5852 11.7071 16.7657C11.8035 16.9463 11.9486 17.0962 12.126 17.1983C12.3034 17.3005 12.5059 17.3508 12.7104 17.3436C12.915 17.3364 13.1134 17.2719 13.2831 17.1575C13.555 16.9738 13.8754 16.8754 14.2034 16.8747H14.7503C17.4217 16.8747 18.8999 14.7438 19.6188 13.2079C23.3474 15.7098 27.7615 16.9912 32.2503 16.8747H32.7972C33.1254 16.8753 33.446 16.9739 33.7179 17.1577C33.8876 17.2721 34.0861 17.3366 34.2906 17.3438C34.4952 17.351 34.6976 17.3007 34.875 17.1985C35.0524 17.0964 35.1975 16.9465 35.2939 16.7659C35.3904 16.5854 35.4342 16.3814 35.4204 16.1772L35.094 11.3098Z" fill="#275C45"/>
<path d="M18.5437 11.1426C18.5669 11.1645 16.9653 14.7395 14.7498 14.6863V19.8476C14.72 22.1039 15.5429 24.2884 17.054 25.9642C18.5651 27.64 20.6531 28.6837 22.9004 28.8866C24.0969 28.9673 25.2973 28.8016 26.4271 28.3995C27.5569 27.9975 28.5921 27.3677 29.4686 26.5492C30.3451 25.7308 31.0442 24.7411 31.5226 23.6414C32.001 22.5418 32.2485 21.3556 32.2498 20.1564V14.6921C27.4549 14.6833 22.7401 13.4623 18.5437 11.1426Z" fill="#FAFCF8"/>
<path d="M28.9688 59.5312L25.6875 42.0312L27.5141 37.4703L23.5 35.4688L19.4859 37.4703L21.3125 42.0312L18.0312 59.5312H28.9688Z" fill="#96E3B9"/>
<path d="M27.5145 37.4703L25.6879 42.0312H21.3129L19.4863 37.4703L23.5004 35.4688L27.5145 37.4703Z" fill="#96E3B9"/>
<path d="M10.375 47.5V59.5312H8.1875V47.5C8.1875 47.2099 8.30273 46.9317 8.50785 46.7266C8.71297 46.5215 8.99117 46.4062 9.28125 46.4062C9.57133 46.4062 9.84953 46.5215 10.0546 46.7266C10.2598 46.9317 10.375 47.2099 10.375 47.5Z" fill="#262626"/>
<path d="M38.8125 47.5V59.5312H36.625V47.5C36.625 47.2099 36.7402 46.9317 36.9454 46.7266C37.1505 46.5215 37.4287 46.4062 37.7188 46.4062C38.0088 46.4062 38.287 46.5215 38.4921 46.7266C38.6973 46.9317 38.8125 47.2099 38.8125 47.5Z" fill="#262626"/>
<path d="M23.5 35.4686L28.4405 39.2781L34.9264 32.3022L29.7967 29.2812L23.5 35.4686Z" fill="#96E3B9"/>
<path d="M23.4996 35.4686L18.5592 39.2781L12.0732 32.3022L17.2029 29.2812L23.4996 35.4686Z" fill="#96E3B9"/>
</svg>
