<svg width="71" height="70" viewBox="0 0 71 70" fill="none" xmlns="http://www.w3.org/2000/svg">
<path d="M13.625 19.6885H11.4375C9.69702 19.6885 8.02782 20.3799 6.79711 21.6106C5.5664 22.8413 4.875 24.5105 4.875 26.251C4.875 27.9915 5.5664 29.6607 6.79711 30.8914C8.02782 32.1221 9.69702 32.8135 11.4375 32.8135H13.625C14.2052 32.8135 14.7616 32.583 15.1718 32.1728C15.582 31.7625 15.8125 31.2061 15.8125 30.626V21.876C15.8125 21.2958 15.582 20.7394 15.1718 20.3292C14.7616 19.9189 14.2052 19.6885 13.625 19.6885Z" fill="#275C45"/>
<path d="M36.3531 58.1229C35.5851 59.2225 34.5296 60.09 33.302 60.6305C32.0744 61.171 30.7218 61.3637 29.3921 61.1876C28.0624 61.0115 26.8066 60.4734 25.762 59.632C24.7174 58.7906 23.9241 57.6783 23.4687 56.4166L16.4688 37.1885H32.0656L37.2281 51.4291C37.6373 52.5319 37.7714 53.7179 37.6189 54.8843C37.4665 56.0506 37.032 57.1622 36.3531 58.1229Z" fill="#275C45"/>
<path d="M35.5 15.3125H13.625C12.4169 15.3125 11.4375 16.2919 11.4375 17.5V35C11.4375 36.2081 12.4169 37.1875 13.625 37.1875H35.5C36.7081 37.1875 37.6875 36.2081 37.6875 35V17.5C37.6875 16.2919 36.7081 15.3125 35.5 15.3125Z" fill="#96E3B9"/>
<path d="M59.5625 19.6885H55.1875C54.6073 19.6885 54.0509 19.9189 53.6407 20.3292C53.2305 20.7394 53 21.2958 53 21.876V30.626C53 31.2061 53.2305 31.7625 53.6407 32.1728C54.0509 32.583 54.6073 32.8135 55.1875 32.8135H59.5625C61.303 32.8135 62.9722 32.1221 64.2029 30.8914C65.4336 29.6607 66.125 27.9915 66.125 26.251C66.125 24.5105 65.4336 22.8413 64.2029 21.6106C62.9722 20.3799 61.303 19.6885 59.5625 19.6885Z" fill="#275C45"/>
<path d="M37.6875 30.9756V35.0006C37.6858 35.5802 37.4548 36.1357 37.0449 36.5455C36.6351 36.9554 36.0796 37.1864 35.5 37.1881H13.625C13.0454 37.1864 12.4899 36.9554 12.0801 36.5455C11.6702 36.1357 11.4392 35.5802 11.4375 35.0006V33.6443C20.2758 34.2651 29.155 33.3624 37.6875 30.9756Z" fill="#96E3B9"/>
<path d="M56.5332 9.21385C56.272 9.00784 55.9668 8.86483 55.6413 8.79594C55.3159 8.72704 54.9789 8.73411 54.6566 8.8166L37.1566 13.1916C36.6835 13.3099 36.2636 13.583 35.9635 13.9673C35.6633 14.3516 35.5002 14.8252 35.5 15.3128V37.1878C35.5 37.6756 35.6631 38.1493 35.9633 38.5338C36.2634 38.9182 36.6834 39.1913 37.1566 39.3097L54.6566 43.6847C54.8301 43.7287 55.0085 43.7507 55.1875 43.7503C55.7676 43.75 56.3238 43.5195 56.734 43.1093C57.1441 42.6991 57.3747 42.1429 57.375 41.5628V10.9378C57.3748 10.6054 57.2989 10.2774 57.1531 9.97869C57.0072 9.67998 56.7953 9.41842 56.5332 9.21385Z" fill="#96E3B9"/>
<path d="M57.375 17.7852V41.5633C57.3779 41.8514 57.3234 42.1371 57.2145 42.4039C57.1056 42.6706 56.9445 42.9129 56.7408 43.1166C56.5371 43.3203 56.2948 43.4813 56.0281 43.5902C55.7614 43.6991 55.4756 43.7537 55.1875 43.7508C55.0105 43.7505 54.8342 43.7285 54.6625 43.6852L37.1625 39.3102C36.6873 39.1947 36.2648 38.9226 35.9632 38.5376C35.6615 38.1527 35.4984 37.6773 35.5 37.1883V31.5883C46.4156 28.7664 53.175 23.5164 57.375 17.7852Z" fill="#96E3B9"/>
</svg>
