<svg width="50" height="46" viewBox="0 0 50 46" fill="none" xmlns="http://www.w3.org/2000/svg">
<path d="M47.6851 0H2.2476C1.28243 0 0.5 0.782425 0.5 1.7476V33.2043C0.5 34.1695 1.28243 34.9519 2.2476 34.9519H47.6851C48.6503 34.9519 49.4327 34.1695 49.4327 33.2043V1.7476C49.4327 0.782425 48.6503 0 47.6851 0Z" fill="#96E3B9"/>
<path d="M37.1993 41.9426C35.8093 41.9411 34.4767 41.3882 33.4938 40.4053C32.5109 39.4225 31.958 38.0898 31.9565 36.6998V33.2046C31.9565 32.7411 31.7724 32.2966 31.4446 31.9689C31.1169 31.6412 30.6724 31.457 30.2089 31.457H19.7233C19.2598 31.457 18.8153 31.6412 18.4876 31.9689C18.1599 32.2966 17.9757 32.7411 17.9757 33.2046V36.6998C17.9742 38.0898 17.4214 39.4225 16.4385 40.4053C15.4556 41.3882 14.123 41.9411 12.7329 41.9426C12.2695 41.9426 11.8249 42.1267 11.4972 42.4545C11.1695 42.7822 10.9854 43.2267 10.9854 43.6902C10.9854 44.1537 11.1695 44.5982 11.4972 44.9259C11.8249 45.2537 12.2695 45.4378 12.7329 45.4378H37.1993C37.6628 45.4378 38.1073 45.2537 38.435 44.9259C38.7628 44.5982 38.9469 44.1537 38.9469 43.6902C38.9469 43.2267 38.7628 42.7822 38.435 42.4545C38.1073 42.1267 37.6628 41.9426 37.1993 41.9426Z" fill="#275C45"/>
<path d="M49.4327 31.7191V33.2045C49.4314 33.6676 49.2468 34.1113 48.9194 34.4388C48.5919 34.7662 48.1482 34.9508 47.6851 34.9521H2.24762C1.78454 34.9508 1.3408 34.7662 1.01336 34.4388C0.685907 34.1113 0.501357 33.6676 0.50002 33.2045V1.7478C0.498078 1.33905 0.64092 0.942813 0.903227 0.629324C1.16553 0.315835 1.53036 0.105342 1.93305 0.0351562C8.11954 12.4606 21.5061 29.0278 49.4327 31.7191Z" fill="#96E3B9"/>
<path d="M17.9761 22.719C17.5126 22.719 17.0681 22.5349 16.7404 22.2071C16.4126 21.8794 16.2285 21.4349 16.2285 20.9714V13.981C16.2285 13.5175 16.4126 13.073 16.7404 12.7453C17.0681 12.4175 17.5126 12.2334 17.9761 12.2334C18.4396 12.2334 18.8841 12.4175 19.2118 12.7453C19.5396 13.073 19.7237 13.5175 19.7237 13.981V20.9714C19.7237 21.4349 19.5396 21.8794 19.2118 22.2071C18.8841 22.5349 18.4396 22.719 17.9761 22.719Z" fill="#275C45"/>
<path d="M38.9468 22.719C38.4833 22.719 38.0388 22.5349 37.7111 22.2071C37.3833 21.8794 37.1992 21.4349 37.1992 20.9714V13.981C37.1992 13.5175 37.3833 13.073 37.7111 12.7453C38.0388 12.4175 38.4833 12.2334 38.9468 12.2334C39.4103 12.2334 39.8548 12.4175 40.1826 12.7453C40.5103 13.073 40.6944 13.5175 40.6944 13.981V20.9714C40.6944 21.4349 40.5103 21.8794 40.1826 22.2071C39.8548 22.5349 39.4103 22.719 38.9468 22.719Z" fill="#275C45"/>
<path d="M10.9859 22.7189C10.5224 22.7189 10.0779 22.5348 9.75014 22.207C9.4224 21.8793 9.23828 21.4348 9.23828 20.9713V17.4761C9.23828 17.0126 9.4224 16.5681 9.75014 16.2404C10.0779 15.9126 10.5224 15.7285 10.9859 15.7285C11.4494 15.7285 11.8939 15.9126 12.2216 16.2404C12.5494 16.5681 12.7335 17.0126 12.7335 17.4761V20.9713C12.7335 21.4348 12.5494 21.8793 12.2216 22.207C11.8939 22.5348 11.4494 22.7189 10.9859 22.7189Z" fill="#275C45"/>
<path d="M31.9566 22.7191C31.4931 22.7191 31.0486 22.5349 30.7208 22.2072C30.3931 21.8795 30.209 21.4349 30.209 20.9715V10.4859C30.209 10.0224 30.3931 9.57788 30.7208 9.25014C31.0486 8.9224 31.4931 8.73828 31.9566 8.73828C32.4201 8.73828 32.8646 8.9224 33.1923 9.25014C33.5201 9.57788 33.7042 10.0224 33.7042 10.4859V20.9715C33.7042 21.4349 33.5201 21.8795 33.1923 22.2072C32.8646 22.5349 32.4201 22.7191 31.9566 22.7191Z" fill="#275C45"/>
<path d="M24.9663 22.7191C24.5029 22.7191 24.0583 22.535 23.7306 22.2073C23.4029 21.8795 23.2188 21.435 23.2188 20.9715V6.99076C23.2188 6.52727 23.4029 6.08276 23.7306 5.75502C24.0583 5.42729 24.5029 5.24316 24.9663 5.24316C25.4298 5.24316 25.8743 5.42729 26.2021 5.75502C26.5298 6.08276 26.7139 6.52727 26.7139 6.99076V20.9715C26.7139 21.435 26.5298 21.8795 26.2021 22.2073C25.8743 22.535 25.4298 22.7191 24.9663 22.7191Z" fill="#275C45"/>
<path d="M19.7062 21.163C19.6582 21.607 19.4416 22.0157 19.1011 22.3048C18.7606 22.5938 18.3222 22.7412 17.8762 22.7166C17.4302 22.6919 17.0107 22.4971 16.7042 22.1723C16.3976 21.8474 16.2274 21.4174 16.2285 20.9707V18.4717C17.3295 19.3979 18.4829 20.2892 19.7062 21.163Z" fill="#275C45"/>
<path d="M49.4327 27.9619V33.2047C49.4314 33.6678 49.2468 34.1115 48.9194 34.439C48.5919 34.7664 48.1482 34.951 47.6851 34.9523H2.2476C1.78452 34.951 1.34078 34.7664 1.01334 34.439C0.685888 34.1115 0.501337 33.6678 0.5 33.2047V27.9619H49.4327Z" fill="#275C45"/>
<path d="M49.4327 31.7192V33.2047C49.4314 33.6678 49.2468 34.1115 48.9194 34.439C48.5919 34.7664 48.1482 34.951 47.6851 34.9523H2.2476C1.78452 34.951 1.34078 34.7664 1.01334 34.439C0.685888 34.1115 0.501337 33.6678 0.5 33.2047V27.9619H32.5859C38.016 29.9356 43.6786 31.1985 49.4327 31.7192Z" fill="#275C45"/>
</svg>
