<svg width="43" height="53" viewBox="0 0 43 53" fill="none" xmlns="http://www.w3.org/2000/svg">
<path d="M42.9 15.9L27 0H9.33333C6.99059 0 4.74379 0.930652 3.08722 2.58722C1.43065 4.24379 0.5 6.49059 0.5 8.83333V44.1667C0.5 46.5094 1.43065 48.7562 3.08722 50.4128C4.74379 52.0693 6.99059 53 9.33333 53H34.0667C36.4094 53 38.6562 52.0693 40.3128 50.4128C41.9693 48.7562 42.9 46.5094 42.9 44.1667V15.9Z" fill="#96E3B9"/>
<path d="M34.0664 24.7326H9.33307C8.86452 24.7326 8.41517 24.5464 8.08385 24.2151C7.75254 23.8838 7.56641 23.4344 7.56641 22.9659C7.56641 22.4973 7.75254 22.048 8.08385 21.7167C8.41517 21.3853 8.86452 21.1992 9.33307 21.1992H34.0664C34.535 21.1992 34.9843 21.3853 35.3156 21.7167C35.6469 22.048 35.8331 22.4973 35.8331 22.9659C35.8331 23.4344 35.6469 23.8838 35.3156 24.2151C34.9843 24.5464 34.535 24.7326 34.0664 24.7326Z" fill="#275C45"/>
<path d="M19.9331 17.6661H9.33307C8.86452 17.6661 8.41517 17.48 8.08385 17.1487C7.75254 16.8174 7.56641 16.368 7.56641 15.8995C7.56641 15.4309 7.75254 14.9816 8.08385 14.6503C8.41517 14.3189 8.86452 14.1328 9.33307 14.1328H19.9331C20.4016 14.1328 20.851 14.3189 21.1823 14.6503C21.5136 14.9816 21.6997 15.4309 21.6997 15.8995C21.6997 16.368 21.5136 16.8174 21.1823 17.1487C20.851 17.48 20.4016 17.6661 19.9331 17.6661Z" fill="#275C45"/>
<path d="M19.9331 10.5997H9.33307C8.86452 10.5997 8.41517 10.4136 8.08385 10.0823C7.75254 9.75098 7.56641 9.30162 7.56641 8.83307C7.56641 8.36452 7.75254 7.91517 8.08385 7.58385C8.41517 7.25254 8.86452 7.06641 9.33307 7.06641H19.9331C20.4016 7.06641 20.851 7.25254 21.1823 7.58385C21.5136 7.91517 21.6997 8.36452 21.6997 8.83307C21.6997 9.30162 21.5136 9.75098 21.1823 10.0823C20.851 10.4136 20.4016 10.5997 19.9331 10.5997Z" fill="#275C45"/>
<path d="M34.0664 45.9327H9.33307C8.86452 45.9327 8.41517 45.7466 8.08385 45.4153C7.75254 45.084 7.56641 44.6346 7.56641 44.1661C7.56641 43.6975 7.75254 43.2482 8.08385 42.9169C8.41517 42.5855 8.86452 42.3994 9.33307 42.3994H34.0664C34.535 42.3994 34.9843 42.5855 35.3156 42.9169C35.6469 43.2482 35.8331 43.6975 35.8331 44.1661C35.8331 44.6346 35.6469 45.084 35.3156 45.4153C34.9843 45.7466 34.535 45.9327 34.0664 45.9327Z" fill="#275C45"/>
<path d="M34.0664 38.8663H9.33307C8.86452 38.8663 8.41517 38.6802 8.08385 38.3489C7.75254 38.0176 7.56641 37.5682 7.56641 37.0997C7.56641 36.6311 7.75254 36.1818 8.08385 35.8505C8.41517 35.5191 8.86452 35.333 9.33307 35.333H34.0664C34.535 35.333 34.9843 35.5191 35.3156 35.8505C35.6469 36.1818 35.8331 36.6311 35.8331 37.0997C35.8331 37.5682 35.6469 38.0176 35.3156 38.3489C34.9843 38.6802 34.535 38.8663 34.0664 38.8663Z" fill="#275C45"/>
<path d="M34.0664 31.799H9.33307C8.86452 31.799 8.41517 31.6128 8.08385 31.2815C7.75254 30.9502 7.56641 30.5008 7.56641 30.0323C7.56641 29.5637 7.75254 29.1144 8.08385 28.7831C8.41517 28.4518 8.86452 28.2656 9.33307 28.2656H34.0664C34.535 28.2656 34.9843 28.4518 35.3156 28.7831C35.6469 29.1144 35.8331 29.5637 35.8331 30.0323C35.8331 30.5008 35.6469 30.9502 35.3156 31.2815C34.9843 31.6128 34.535 31.799 34.0664 31.799Z" fill="#275C45"/>
<path d="M27 0V12.3667C27 13.3038 27.3723 14.2025 28.0349 14.8651C28.6975 15.5277 29.5962 15.9 30.5333 15.9H42.9L27 0Z" fill="#96E3B9"/>
</svg>
