<svg width="45" height="45" viewBox="0 0 45 45" fill="none" xmlns="http://www.w3.org/2000/svg">
<path d="M9.66602 33.7619H17.4393C17.6806 33.7633 17.9198 33.7171 18.1432 33.6258C18.3665 33.5346 18.5697 33.4002 18.741 33.2303L31.4277 20.5253L36.6343 15.4286C36.8062 15.2582 36.9426 15.0554 37.0356 14.832C37.1287 14.6086 37.1766 14.369 37.1766 14.1269C37.1766 13.8849 37.1287 13.6453 37.0356 13.4219C36.9426 13.1985 36.8062 12.9957 36.6343 12.8253L28.861 4.96027C28.6906 4.78843 28.4878 4.65204 28.2644 4.55896C28.041 4.46589 27.8014 4.41797 27.5593 4.41797C27.3173 4.41797 27.0777 4.46589 26.8543 4.55896C26.6309 4.65204 26.4281 4.78843 26.2577 4.96027L21.0877 10.1486L8.36435 22.8536C8.19443 23.0249 8.06 23.2281 7.96877 23.4514C7.87753 23.6748 7.83129 23.914 7.83268 24.1553V31.9286C7.83268 32.4148 8.02584 32.8811 8.36965 33.225C8.71347 33.5688 9.17979 33.7619 9.66602 33.7619ZM27.5593 8.84693L32.7477 14.0353L30.1443 16.6386L24.956 11.4503L27.5593 8.84693ZM11.4993 24.9069L22.371 14.0353L27.5593 19.2236L16.6877 30.0953H11.4993V24.9069ZM38.9993 37.4286H5.99935C5.51312 37.4286 5.0468 37.6218 4.70299 37.9656C4.35917 38.3094 4.16602 38.7757 4.16602 39.2619C4.16602 39.7482 4.35917 40.2145 4.70299 40.5583C5.0468 40.9021 5.51312 41.0953 5.99935 41.0953H38.9993C39.4856 41.0953 39.9519 40.9021 40.2957 40.5583C40.6395 40.2145 40.8327 39.7482 40.8327 39.2619C40.8327 38.7757 40.6395 38.3094 40.2957 37.9656C39.9519 37.6218 39.4856 37.4286 38.9993 37.4286Z" fill="white"/>
</svg>
