<svg width="500" height="500" viewBox="0 0 500 500" fill="none" xmlns="http://www.w3.org/2000/svg">
<path d="M250 477.929C380.113 477.929 485.59 417.031 485.59 341.911C485.59 266.79 380.113 205.893 250 205.893C119.887 205.893 14.4102 266.79 14.4102 341.911C14.4102 417.031 119.887 477.929 250 477.929Z" fill="#F0F0F0"/>
<path d="M201.247 444.988C246.115 444.988 282.488 423.988 282.488 398.084C282.488 372.179 246.115 351.18 201.247 351.18C156.379 351.18 120.006 372.179 120.006 398.084C120.006 423.988 156.379 444.988 201.247 444.988Z" fill="#E0E0E0"/>
<path d="M432.276 339.404L422.75 333.904C422.75 333.904 420.416 313.502 421.969 297.702C424.15 275.5 438.489 248.785 455.595 255.059C472.7 261.333 447.752 283.944 442.199 302.776C436.645 321.607 432.276 339.404 432.276 339.404Z" fill="#25D366"/>
<path opacity="0.15" d="M432.276 339.404L422.75 333.904C422.75 333.904 420.416 313.502 421.969 297.702C424.15 275.5 438.489 248.785 455.595 255.059C472.7 261.333 447.752 283.944 442.199 302.776C436.645 321.607 432.276 339.404 432.276 339.404Z" fill="black"/>
<path d="M427.266 337.089C427.272 337.089 427.279 337.089 427.286 337.089C427.604 337.078 427.854 336.812 427.843 336.493C426.17 287.16 450.728 262.344 450.976 262.1C451.203 261.876 451.206 261.511 450.982 261.285C450.756 261.058 450.391 261.055 450.166 261.279C449.914 261.528 425 286.7 426.689 336.534C426.7 336.844 426.956 337.089 427.266 337.089Z" fill="white"/>
<path d="M438.265 342.834L431.486 338.92C431.486 338.92 430.333 324.92 437.197 307.913C443.172 293.107 457.999 280.824 465.456 283.405C472.913 285.986 472.728 291.274 469.092 296.821C465.457 302.368 443.338 315.589 438.265 342.834Z" fill="#25D366"/>
<path d="M434.69 341.347H434.693C435.011 341.345 435.269 341.087 435.267 340.768C435.133 309.576 464.421 288.494 464.717 288.285C464.977 288.101 465.039 287.742 464.854 287.481C464.672 287.222 464.313 287.157 464.05 287.344C463.75 287.556 433.976 308.988 434.113 340.774C434.115 341.091 434.372 341.347 434.69 341.347Z" fill="white"/>
<path d="M79.66 327.147L88.456 321.211C88.456 321.211 92.328 298.165 88.731 277.922C83.673 249.461 64.045 239.99 57.041 242.964C50.037 245.938 48.54 254.427 61.608 270.676C69.318 280.262 79.39 300.649 79.66 327.147Z" fill="#25D366"/>
<g opacity="0.15">
<path d="M79.66 327.147L88.456 321.211C88.456 321.211 92.328 298.165 88.731 277.922C83.673 249.461 64.045 239.99 57.041 242.964C50.037 245.938 48.54 254.427 61.608 270.676C69.318 280.262 79.39 300.649 79.66 327.147Z" fill="black"/>
</g>
<path d="M82.6811 315.746C82.6511 315.746 82.6221 315.745 82.5931 315.741C82.2441 315.699 81.9931 315.383 82.0351 315.033C85.2121 288.235 73.8991 259.161 61.5951 247.593C61.3391 247.353 61.3261 246.948 61.5681 246.692C61.8101 246.438 62.2131 246.423 62.4691 246.665C74.9971 258.444 86.5261 287.99 83.3011 315.183C83.2621 315.503 82.9931 315.74 82.6811 315.746Z" fill="white"/>
<path d="M56.6198 342.689C55.2238 343.527 51.1428 340.5 50.0138 339.773C48.0808 338.53 46.4998 336.746 45.4328 334.715C44.1918 332.351 43.8408 329.8 44.1638 327.152C44.3318 325.779 44.6888 324.437 45.0448 323.101C45.3948 321.789 45.7448 320.477 46.0948 319.164C46.4398 317.869 46.7888 316.53 46.5928 315.205C46.1988 312.534 43.7858 310.705 41.5938 309.128C39.1698 307.385 36.6368 305.072 36.5878 301.848C36.5498 299.361 37.7938 297.026 39.2968 295.045C40.8008 293.063 42.5958 291.304 43.9488 289.216C44.9228 287.713 45.6718 285.956 45.4738 284.176C45.3508 283.07 44.8718 282.035 44.3228 281.068C43.1438 278.991 41.6058 277.098 40.7768 274.858C39.9478 272.619 40.0058 269.812 41.7348 268.165C43.1538 266.813 45.2968 266.587 47.2538 266.678C49.0648 266.763 50.8478 267.545 52.4468 268.394C57.6188 271.14 60.6568 277.144 66.1288 279.229C68.2398 280.033 70.5378 280.174 72.7318 280.709C74.9258 281.244 77.1738 282.316 78.2238 284.316C80.2938 288.259 76.6898 293.237 78.1728 297.436C79.4848 301.152 83.1468 302.513 85.2528 305.844C86.1738 307.301 86.4128 309.001 86.3018 310.722C86.1138 313.634 85.7298 315.775 84.3978 319.035C83.2968 321.729 80.0268 326.904 80.0268 326.904C80.0268 326.904 56.8328 342.56 56.6198 342.689Z" fill="#25D366"/>
<path d="M70.1374 334.398C70.1284 334.398 70.1204 334.398 70.1204 334.398C69.7594 334.39 69.4814 334.098 69.4884 333.747C70.0524 308.43 57.5944 280.732 48.7694 272.786C48.5084 272.551 48.4864 272.148 48.7224 271.886C48.9584 271.625 49.3604 271.605 49.6224 271.839C58.6244 279.945 71.3344 308.102 70.7634 333.775C70.7544 334.119 70.4774 334.391 70.1374 334.398Z" fill="white"/>
<path d="M65.4742 303.555C65.4122 303.556 65.3482 303.549 65.2862 303.53C57.1102 301.175 46.9722 300.927 46.8712 300.925C46.5192 300.917 46.2402 300.625 46.2472 300.273C46.2552 299.922 46.5162 299.639 46.8992 299.649C47.0022 299.652 57.3012 299.902 65.6392 302.305C65.9772 302.402 66.1732 302.755 66.0752 303.093C65.9942 303.369 65.7462 303.55 65.4742 303.555Z" fill="white"/>
<path d="M301.159 309.746L297.365 307.553C296.17 306.862 295.201 305.183 295.201 303.802L295.2 146.285C295.2 144.904 296.169 143.225 297.365 142.535L402.71 81.7148C403.906 81.0248 405.844 81.0248 407.04 81.7148L410.835 83.9048C412.031 84.5948 413 86.2738 413 87.6548V245.171C413 246.552 412.031 248.231 410.835 248.921L305.488 309.746C304.293 310.437 302.354 310.436 301.159 309.746Z" fill="#455A64"/>
<path d="M412.982 87.3028C412.832 86.1828 411.922 85.7728 410.832 86.4028L305.492 147.233C304.892 147.583 304.362 148.163 303.962 148.843L295.832 144.153C296.222 143.473 296.762 142.883 297.362 142.533L402.712 81.7128C403.902 81.0228 405.842 81.0228 407.042 81.7128L410.832 83.9028C411.932 84.5328 412.842 86.0028 412.982 87.3028Z" fill="#455A64"/>
<path d="M305.122 309.919C303.922 310.429 302.242 310.369 301.162 309.749L297.362 307.549C296.172 306.859 295.202 305.179 295.202 303.799V146.282C295.202 145.592 295.442 144.832 295.832 144.152L303.962 148.842C303.562 149.522 303.322 150.292 303.322 150.982V308.499C303.322 309.739 304.102 310.309 305.122 309.919Z" fill="#263238"/>
<path d="M303.323 150.98V308.496C303.323 309.877 304.292 310.436 305.488 309.746L410.835 248.921C412.031 248.231 413 246.552 413 245.171V87.653C413 86.272 412.031 85.713 410.835 86.403L305.488 147.23C304.293 147.92 303.323 149.599 303.323 150.98Z" fill="#37474F"/>
<path d="M278.722 211.023C277.362 210.213 271.052 206.623 270.722 206.433C269.722 205.823 269.362 204.343 270.292 203.343L295.202 176.623L303.322 181.283L278.422 208.013C277.522 208.973 277.812 210.363 278.722 211.023Z" fill="#455A64"/>
<path d="M303.324 181.287L278.419 208.01C277.171 209.349 278.225 211.522 280.049 211.372L303.324 209.455V181.287Z" fill="#37474F"/>
<path d="M358.162 133.202C370.44 126.113 380.393 131.86 380.393 146.037C380.393 160.214 370.44 177.453 358.162 184.542C345.884 191.631 335.931 185.884 335.931 171.707C335.932 157.529 345.885 140.29 358.162 133.202Z" fill="#25D366"/>
<path d="M358.006 144.36C361.989 142.06 365.219 143.924 365.219 148.523C365.219 153.123 361.99 158.716 358.006 161.015C354.023 163.314 350.794 161.451 350.794 156.851C350.794 152.252 354.023 146.659 358.006 144.36Z" fill="white"/>
<path d="M372.22 168.884C372.22 161.327 366.914 158.264 360.371 162.043L356.28 164.405C349.737 168.183 344.431 177.372 344.431 184.928V186.989C345.613 187.381 346.895 187.575 348.251 187.578C351.236 187.584 354.596 186.601 358.163 184.542C363.497 181.462 368.39 176.464 372.22 170.637V168.884Z" fill="white"/>
<path d="M344.079 254.731L372.245 238.469C373.441 237.779 374.41 238.338 374.41 239.719V248.79C374.41 250.171 373.441 251.85 372.245 252.54L344.079 268.802C342.883 269.492 341.914 268.933 341.914 267.552V258.481C341.914 257.1 342.883 255.421 344.079 254.731Z" fill="#25D366"/>
<path d="M330.294 234.466L386.029 202.288C387.464 201.46 388.627 202.131 388.627 203.788V207.164C388.627 208.821 387.464 210.836 386.029 211.664L330.295 243.842C328.86 244.67 327.697 243.999 327.697 242.342V238.966C327.696 237.309 328.86 235.294 330.294 234.466Z" fill="#FAFAFA"/>
<path d="M336.812 211.179C337.57 210.741 338.16 210.675 338.58 210.984C339 211.292 339.21 211.976 339.21 213.038C339.21 214.101 339 215.032 338.58 215.834C338.16 216.637 337.57 217.257 336.812 217.695L335.307 218.563V221.792C335.307 221.899 335.282 222.004 335.232 222.11C335.181 222.217 335.122 222.29 335.052 222.329L334.291 222.769C334.222 222.81 334.162 222.806 334.111 222.757C334.061 222.708 334.036 222.632 334.036 222.525V213.171C334.036 213.065 334.061 212.958 334.111 212.852C334.162 212.747 334.221 212.672 334.291 212.633L336.812 211.179ZM335.307 216.753L336.764 215.911C337.121 215.705 337.407 215.432 337.62 215.091C337.833 214.751 337.939 214.312 337.939 213.771C337.939 213.23 337.833 212.917 337.62 212.833C337.406 212.749 337.121 212.81 336.764 213.017L335.307 213.858V216.753Z" fill="#FAFAFA"/>
<path d="M343.404 207.372C343.504 207.314 343.58 207.311 343.63 207.364C343.681 207.418 343.725 207.515 343.762 207.658L346.067 215.479C346.073 215.504 346.076 215.536 346.076 215.575C346.076 215.681 346.051 215.787 346.001 215.893C345.951 215.999 345.892 216.073 345.822 216.112L345.145 216.503C345.02 216.575 344.931 216.585 344.881 216.532C344.83 216.479 344.797 216.42 344.777 216.352L344.373 214.979L341.401 216.696L340.997 218.536C340.978 218.624 340.943 218.724 340.894 218.835C340.843 218.946 340.756 219.037 340.63 219.11L339.953 219.501C339.884 219.54 339.824 219.536 339.774 219.487C339.723 219.439 339.699 219.362 339.699 219.257C339.699 219.218 339.702 219.183 339.709 219.15L342.013 208.669C342.051 208.482 342.094 208.335 342.145 208.224C342.195 208.114 342.27 208.029 342.371 207.971L343.404 207.372ZM343.921 213.431L342.887 209.902L341.853 214.625L343.921 213.431Z" fill="#FAFAFA"/>
<path d="M349.574 203.666C349.994 203.424 350.364 203.297 350.683 203.287C351.003 203.275 351.269 203.339 351.483 203.476C351.696 203.614 351.857 203.808 351.967 204.058C352.076 204.308 352.138 204.57 352.151 204.842C352.157 204.954 352.133 205.062 352.081 205.165C352.027 205.267 351.966 205.339 351.897 205.379L351.238 205.759C351.132 205.822 351.053 205.835 350.999 205.804C350.946 205.773 350.896 205.716 350.853 205.636C350.759 205.448 350.618 205.321 350.426 205.252C350.234 205.185 349.95 205.258 349.574 205.476C349.411 205.57 349.256 205.687 349.109 205.824C348.961 205.963 348.832 206.114 348.723 206.279C348.613 206.443 348.527 206.617 348.464 206.797C348.401 206.979 348.37 207.161 348.37 207.344C348.37 207.567 348.399 207.731 348.459 207.836C348.518 207.941 348.618 208.004 348.76 208.024C348.901 208.045 349.088 208.03 349.32 207.983C349.552 207.936 349.841 207.872 350.185 207.788C350.561 207.696 350.885 207.657 351.159 207.669C351.431 207.681 351.653 207.754 351.826 207.891C351.999 208.029 352.127 208.227 352.212 208.487C352.297 208.748 352.339 209.075 352.339 209.47C352.339 209.905 352.276 210.344 352.151 210.788C352.026 211.231 351.846 211.653 351.615 212.053C351.382 212.452 351.098 212.827 350.758 213.177C350.42 213.527 350.04 213.823 349.62 214.066C349.268 214.269 348.933 214.398 348.614 214.451C348.294 214.506 348.01 214.482 347.763 214.379C347.515 214.275 347.316 214.094 347.164 213.833C347.015 213.572 346.93 213.235 346.911 212.821C346.904 212.709 346.929 212.601 346.981 212.498C347.034 212.396 347.095 212.324 347.164 212.284L347.823 211.904C347.929 211.841 348.011 211.824 348.067 211.849C348.124 211.874 348.17 211.934 348.209 212.027C348.253 212.129 348.306 212.223 348.369 212.312C348.432 212.401 348.515 212.463 348.622 212.498C348.728 212.533 348.862 212.535 349.022 212.507C349.182 212.477 349.38 212.394 349.619 212.255C349.807 212.148 349.989 212.021 350.165 211.875C350.34 211.731 350.494 211.569 350.626 211.392C350.757 211.215 350.863 211.029 350.945 210.831C351.026 210.634 351.067 210.425 351.067 210.202C351.067 209.991 351.023 209.843 350.936 209.758C350.848 209.673 350.714 209.635 350.536 209.642C350.357 209.648 350.137 209.684 349.873 209.749C349.61 209.813 349.306 209.879 348.961 209.942C348.647 210.007 348.373 210.028 348.138 210.005C347.903 209.982 347.708 209.898 347.555 209.755C347.402 209.612 347.287 209.405 347.212 209.135C347.137 208.864 347.1 208.513 347.1 208.077C347.1 207.643 347.163 207.206 347.288 206.768C347.413 206.329 347.586 205.914 347.806 205.528C348.025 205.14 348.286 204.784 348.591 204.46C348.895 204.133 349.224 203.869 349.574 203.666Z" fill="#FAFAFA"/>
<path d="M356.138 199.875C356.559 199.633 356.928 199.506 357.247 199.495C357.567 199.484 357.834 199.547 358.048 199.684C358.26 199.822 358.421 200.016 358.531 200.266C358.641 200.517 358.702 200.779 358.715 201.05C358.721 201.163 358.698 201.271 358.645 201.373C358.591 201.476 358.53 201.548 358.461 201.587L357.802 201.968C357.695 202.03 357.616 202.044 357.563 202.013C357.51 201.981 357.461 201.924 357.418 201.844C357.323 201.658 357.182 201.529 356.99 201.46C356.799 201.393 356.515 201.466 356.138 201.684C355.975 201.779 355.821 201.895 355.673 202.033C355.525 202.172 355.397 202.322 355.287 202.487C355.177 202.652 355.091 202.825 355.028 203.006C354.965 203.187 354.934 203.369 354.934 203.553C354.934 203.776 354.963 203.939 355.023 204.044C355.083 204.151 355.182 204.213 355.324 204.233C355.466 204.253 355.652 204.239 355.884 204.192C356.116 204.145 356.405 204.081 356.749 203.997C357.126 203.905 357.449 203.866 357.723 203.877C357.995 203.889 358.218 203.962 358.39 204.099C358.563 204.238 358.692 204.435 358.776 204.695C358.861 204.957 358.903 205.283 358.903 205.679C358.903 206.113 358.84 206.552 358.715 206.997C358.59 207.44 358.41 207.862 358.179 208.261C357.948 208.661 357.662 209.035 357.323 209.386C356.985 209.736 356.605 210.032 356.186 210.274C355.833 210.477 355.498 210.606 355.179 210.66C354.86 210.715 354.576 210.69 354.328 210.587C354.08 210.484 353.881 210.303 353.73 210.041C353.58 209.78 353.495 209.443 353.476 209.029C353.47 208.917 353.494 208.809 353.547 208.707C353.599 208.603 353.66 208.532 353.73 208.492L354.388 208.112C354.494 208.05 354.576 208.032 354.632 208.058C354.69 208.083 354.736 208.142 354.774 208.236C354.818 208.337 354.872 208.431 354.934 208.521C354.997 208.609 355.081 208.671 355.188 208.707C355.294 208.742 355.428 208.744 355.587 208.716C355.747 208.686 355.945 208.603 356.185 208.465C356.373 208.357 356.554 208.231 356.73 208.084C356.905 207.941 357.059 207.779 357.191 207.602C357.322 207.424 357.429 207.239 357.511 207.041C357.592 206.845 357.632 206.636 357.632 206.413C357.632 206.201 357.588 206.053 357.501 205.968C357.413 205.884 357.279 205.845 357.101 205.852C356.923 205.859 356.702 205.894 356.438 205.959C356.175 206.024 355.871 206.089 355.526 206.153C355.213 206.217 354.938 206.239 354.703 206.216C354.469 206.192 354.273 206.109 354.121 205.966C353.967 205.823 353.852 205.616 353.777 205.345C353.702 205.075 353.665 204.723 353.665 204.288C353.665 203.854 353.728 203.417 353.853 202.978C353.978 202.539 354.151 202.125 354.371 201.738C354.59 201.35 354.851 200.995 355.156 200.67C355.46 200.342 355.787 200.078 356.138 199.875Z" fill="#FAFAFA"/>
<path d="M363.427 201.127L362.618 205.923C362.587 206.085 362.547 206.227 362.5 206.345C362.453 206.464 362.383 206.551 362.289 206.605L361.526 207.045C361.432 207.099 361.358 207.097 361.305 207.034C361.251 206.973 361.216 206.876 361.198 206.743L359.993 198.302C359.987 198.257 359.984 198.22 359.984 198.192C359.984 198.086 360.009 197.979 360.059 197.873C360.109 197.767 360.168 197.693 360.238 197.654L360.933 197.252C360.996 197.217 361.056 197.211 361.113 197.236C361.169 197.261 361.207 197.34 361.225 197.475L362.015 203.158L362.711 198.89C362.724 198.815 362.753 198.71 362.801 198.577C362.847 198.444 362.927 198.345 363.04 198.279L363.811 197.834C363.924 197.769 364.004 197.776 364.051 197.855C364.098 197.934 364.127 198.003 364.14 198.063L364.836 201.528L365.626 194.933C365.644 194.777 365.683 194.655 365.739 194.563C365.795 194.473 365.855 194.409 365.918 194.374L366.613 193.972C366.682 193.933 366.742 193.937 366.792 193.986C366.842 194.034 366.867 194.111 366.867 194.217C366.867 194.245 366.864 194.286 366.858 194.337L365.654 204.169C365.634 204.325 365.599 204.464 365.547 204.586C365.493 204.708 365.42 204.797 365.325 204.852L364.563 205.291C364.468 205.346 364.398 205.341 364.351 205.276C364.304 205.211 364.265 205.116 364.233 204.989L363.427 201.127Z" fill="#FAFAFA"/>
<path d="M368.11 196.888C368.13 196.337 368.196 195.788 368.312 195.243C368.428 194.698 368.599 194.184 368.825 193.702C369.051 193.22 369.333 192.776 369.671 192.374C370.011 191.97 370.411 191.636 370.876 191.367C371.333 191.102 371.731 190.974 372.069 190.981C372.408 190.989 372.69 191.106 372.916 191.333C373.142 191.56 373.313 191.876 373.433 192.279C373.552 192.684 373.622 193.155 373.641 193.694C373.647 193.875 373.652 194.075 373.655 194.294C373.658 194.514 373.66 194.742 373.66 194.979C373.66 195.216 373.658 195.446 373.655 195.669C373.652 195.894 373.647 196.099 373.641 196.285C373.621 196.838 373.554 197.385 373.439 197.93C373.323 198.475 373.152 198.989 372.926 199.471C372.7 199.953 372.416 200.395 372.075 200.795C371.732 201.195 371.333 201.527 370.876 201.791C370.411 202.059 370.011 202.189 369.671 202.183C369.333 202.175 369.051 202.061 368.825 201.838C368.599 201.617 368.428 201.301 368.312 200.889C368.196 200.479 368.129 200.008 368.11 199.479C368.104 199.299 368.098 199.1 368.096 198.878C368.092 198.658 368.091 198.43 368.091 198.194C368.091 197.958 368.092 197.727 368.096 197.503C368.099 197.28 368.104 197.075 368.11 196.888ZM372.371 194.5C372.346 193.819 372.2 193.366 371.933 193.138C371.666 192.911 371.314 192.923 370.875 193.177C370.436 193.431 370.083 193.825 369.816 194.361C369.549 194.896 369.403 195.517 369.378 196.227C369.365 196.601 369.358 197.013 369.358 197.462C369.358 197.911 369.365 198.314 369.378 198.674C369.402 199.355 369.549 199.806 369.816 200.028C370.083 200.251 370.435 200.235 370.875 199.982C371.314 199.729 371.666 199.337 371.933 198.807C372.2 198.276 372.345 197.657 372.371 196.947C372.384 196.573 372.39 196.162 372.39 195.713C372.39 195.264 372.384 194.861 372.371 194.5Z" fill="#FAFAFA"/>
<path d="M378.033 187.379C378.816 186.927 379.411 186.863 379.819 187.188C380.226 187.513 380.43 188.172 380.43 189.167C380.43 189.872 380.326 190.532 380.116 191.151C379.905 191.769 379.596 192.317 379.189 192.794L380.487 195.621C380.506 195.668 380.515 195.716 380.515 195.765C380.515 195.851 380.494 195.937 380.453 196.025C380.413 196.111 380.363 196.17 380.307 196.203L379.507 196.664C379.382 196.736 379.289 196.744 379.23 196.687C379.17 196.628 379.128 196.57 379.103 196.507L377.872 193.843L376.621 194.566V197.94C376.621 198.046 376.596 198.152 376.546 198.257C376.495 198.364 376.437 198.437 376.367 198.478L375.605 198.917C375.536 198.956 375.477 198.952 375.426 198.903C375.375 198.855 375.351 198.779 375.351 198.673V189.319C375.351 189.212 375.375 189.106 375.426 189.001C375.477 188.894 375.535 188.821 375.605 188.78L378.033 187.379ZM376.622 192.755L377.985 191.968C378.343 191.762 378.628 191.5 378.841 191.184C379.054 190.869 379.16 190.44 379.16 189.899C379.16 189.359 379.053 189.058 378.841 188.998C378.627 188.938 378.343 189.011 377.985 189.218L376.622 190.005V192.755Z" fill="#FAFAFA"/>
<path d="M384.7 183.53C385.164 183.262 385.566 183.124 385.908 183.114C386.25 183.106 386.535 183.209 386.765 183.425C386.994 183.64 387.168 183.958 387.291 184.38C387.413 184.802 387.486 185.31 387.512 185.903C387.537 186.602 387.537 187.317 387.512 188.046C387.487 188.669 387.413 189.262 387.291 189.824C387.168 190.388 386.995 190.907 386.769 191.386C386.542 191.864 386.262 192.293 385.926 192.675C385.591 193.058 385.198 193.378 384.746 193.639L382.376 195.007C382.307 195.047 382.248 195.043 382.197 194.994C382.147 194.946 382.122 194.87 382.122 194.763V185.409C382.122 185.304 382.147 185.196 382.197 185.091C382.248 184.985 382.306 184.911 382.376 184.871L384.7 183.53ZM386.242 186.636C386.229 186.335 386.19 186.07 386.125 185.843C386.059 185.616 385.962 185.44 385.833 185.317C385.704 185.193 385.543 185.133 385.35 185.133C385.155 185.135 384.922 185.213 384.654 185.369L383.394 186.096V192.612L384.701 191.858C384.958 191.71 385.18 191.526 385.369 191.305C385.557 191.086 385.713 190.844 385.839 190.577C385.964 190.311 386.06 190.025 386.126 189.717C386.191 189.408 386.231 189.096 386.243 188.781C386.266 188.05 386.266 187.337 386.242 186.636Z" fill="#FAFAFA"/>
<path d="M247.377 38.3954C249.125 38.7824 250.772 39.4014 252.319 40.2504C253.866 41.1004 255.177 42.1414 256.25 43.3734C257.323 44.6044 258.096 46.0044 258.567 47.5724C259.039 49.1384 259.073 50.8344 258.67 52.6554C258.341 54.1424 257.822 55.3844 257.115 56.3774C256.406 57.3714 255.593 58.2254 254.675 58.9374C253.757 59.6504 252.788 60.2754 251.774 60.8104C250.757 61.3464 249.795 61.8554 248.891 62.3354C247.984 62.8174 247.163 63.3494 246.432 63.9274C245.699 64.5064 245.187 65.1934 244.894 65.9864C244.728 66.3794 244.483 66.6944 244.158 66.9334C243.831 67.1744 243.464 67.2474 243.055 67.1584L238.816 66.2194C238.407 66.1294 238.077 65.9014 237.828 65.5324C237.578 65.1654 237.517 64.7824 237.644 64.3814C238.04 62.9474 238.627 61.7414 239.41 60.7644C240.192 59.7874 241.06 58.9464 242.016 58.2404C242.972 57.5354 243.965 56.9274 244.995 56.4144C246.024 55.9004 246.983 55.4014 247.872 54.9154C248.759 54.4304 249.517 53.9144 250.143 53.3714C250.771 52.8284 251.171 52.1654 251.344 51.3844C251.657 49.9724 251.32 48.6784 250.331 47.5034C249.343 46.3294 247.863 45.5244 245.893 45.0874C242.733 44.3874 240.059 45.4534 237.872 48.2844C237.596 48.6524 237.332 48.9154 237.084 49.0744C236.833 49.2344 236.466 49.2604 235.982 49.1524L231.465 48.1524C231.131 48.0784 230.866 47.9024 230.675 47.6264C230.483 47.3504 230.428 47.0254 230.51 46.6534C230.834 45.3604 231.53 44.1204 232.592 42.9314C233.654 41.7434 234.949 40.7434 236.474 39.9294C238 39.1174 239.706 38.5484 241.591 38.2254C243.479 37.9034 245.406 37.9584 247.377 38.3954ZM242.594 70.5674C243.002 70.6574 243.323 70.8844 243.553 71.2484C243.785 71.6114 243.856 71.9974 243.765 72.4064L242.678 77.3134C242.587 77.7234 242.361 78.0434 241.997 78.2744C241.634 78.5074 241.249 78.5774 240.84 78.4864L236.044 77.4244C235.634 77.3324 235.314 77.1074 235.082 76.7424C234.85 76.3794 234.779 75.9944 234.87 75.5844L235.957 70.6764C236.048 70.2684 236.274 69.9474 236.638 69.7154C237.002 69.4854 237.387 69.4134 237.797 69.5044L242.594 70.5674Z" fill="#25D366"/>
<path d="M252.717 85.3045C253.936 85.1055 255.151 85.0785 256.361 85.2285C257.57 85.3765 258.676 85.7075 259.68 86.2225C260.683 86.7395 261.537 87.4385 262.24 88.3225C262.945 89.2075 263.4 90.2855 263.608 91.5545C263.777 92.5925 263.762 93.5225 263.563 94.3395C263.364 95.1575 263.061 95.9135 262.655 96.6065C262.249 97.2985 261.789 97.9465 261.274 98.5495C260.76 99.1535 260.274 99.7245 259.817 100.266C259.359 100.807 258.969 101.358 258.648 101.916C258.326 102.474 258.173 103.045 258.189 103.628C258.183 103.923 258.106 104.188 257.96 104.425C257.812 104.662 257.595 104.804 257.311 104.851L254.353 105.334C254.067 105.381 253.797 105.318 253.542 105.146C253.288 104.975 253.15 104.745 253.13 104.455C253.017 103.434 253.085 102.512 253.337 101.684C253.587 100.858 253.929 100.095 254.361 99.3985C254.793 98.7025 255.274 98.0575 255.803 97.4645C256.332 96.8725 256.819 96.3065 257.264 95.7665C257.708 95.2295 258.062 94.7045 258.325 94.1965C258.588 93.6865 258.676 93.1605 258.587 92.6145C258.426 91.6305 257.878 90.8865 256.943 90.3855C256.008 89.8855 254.854 89.7475 253.479 89.9725C251.274 90.3325 249.833 91.7015 249.155 94.0765C249.072 94.3825 248.971 94.6185 248.851 94.7845C248.732 94.9515 248.503 95.0615 248.166 95.1165L245.015 95.6325C244.781 95.6705 244.567 95.6255 244.372 95.4975C244.178 95.3685 244.06 95.1755 244.017 94.9155C243.894 94.0045 244.022 93.0305 244.4 91.9965C244.776 90.9625 245.35 89.9895 246.12 89.0785C246.89 88.1665 247.839 87.3665 248.964 86.6765C250.092 85.9865 251.342 85.5295 252.717 85.3045ZM257.885 107.154C258.17 107.108 258.434 107.172 258.676 107.344C258.917 107.519 259.061 107.748 259.108 108.032L259.668 111.458C259.715 111.743 259.651 112.007 259.478 112.248C259.304 112.49 259.075 112.633 258.789 112.68L255.442 113.227C255.157 113.274 254.893 113.211 254.652 113.038C254.41 112.864 254.266 112.635 254.219 112.35L253.659 108.924C253.613 108.64 253.676 108.376 253.849 108.134C254.023 107.893 254.252 107.748 254.537 107.701L257.885 107.154Z" fill="#25D366"/>
<g opacity="0.2">
<path d="M252.717 85.3045C253.936 85.1055 255.151 85.0785 256.361 85.2285C257.57 85.3765 258.676 85.7075 259.68 86.2225C260.683 86.7395 261.537 87.4385 262.24 88.3225C262.945 89.2075 263.4 90.2855 263.608 91.5545C263.777 92.5925 263.762 93.5225 263.563 94.3395C263.364 95.1575 263.061 95.9135 262.655 96.6065C262.249 97.2985 261.789 97.9465 261.274 98.5495C260.76 99.1535 260.274 99.7245 259.817 100.266C259.359 100.807 258.969 101.358 258.648 101.916C258.326 102.474 258.173 103.045 258.189 103.628C258.183 103.923 258.106 104.188 257.96 104.425C257.812 104.662 257.595 104.804 257.311 104.851L254.353 105.334C254.067 105.381 253.797 105.318 253.542 105.146C253.288 104.975 253.15 104.745 253.13 104.455C253.017 103.434 253.085 102.512 253.337 101.684C253.587 100.858 253.929 100.095 254.361 99.3985C254.793 98.7025 255.274 98.0575 255.803 97.4645C256.332 96.8725 256.819 96.3065 257.264 95.7665C257.708 95.2295 258.062 94.7045 258.325 94.1965C258.588 93.6865 258.676 93.1605 258.587 92.6145C258.426 91.6305 257.878 90.8865 256.943 90.3855C256.008 89.8855 254.854 89.7475 253.479 89.9725C251.274 90.3325 249.833 91.7015 249.155 94.0765C249.072 94.3825 248.971 94.6185 248.851 94.7845C248.732 94.9515 248.503 95.0615 248.166 95.1165L245.015 95.6325C244.781 95.6705 244.567 95.6255 244.372 95.4975C244.178 95.3685 244.06 95.1755 244.017 94.9155C243.894 94.0045 244.022 93.0305 244.4 91.9965C244.776 90.9625 245.35 89.9895 246.12 89.0785C246.89 88.1665 247.839 87.3665 248.964 86.6765C250.092 85.9865 251.342 85.5295 252.717 85.3045ZM257.885 107.154C258.17 107.108 258.434 107.172 258.676 107.344C258.917 107.519 259.061 107.748 259.108 108.032L259.668 111.458C259.715 111.743 259.651 112.007 259.478 112.248C259.304 112.49 259.075 112.633 258.789 112.68L255.442 113.227C255.157 113.274 254.893 113.211 254.652 113.038C254.41 112.864 254.266 112.635 254.219 112.35L253.659 108.924C253.613 108.64 253.676 108.376 253.849 108.134C254.023 107.893 254.252 107.748 254.537 107.701L257.885 107.154Z" fill="black"/>
</g>
<path d="M280.991 90.6889C281.27 90.8879 281.439 91.1609 281.499 91.5079C281.557 91.8559 281.487 92.1689 281.289 92.4479L278.907 95.7989C278.708 96.0789 278.435 96.2479 278.088 96.3059C277.74 96.3659 277.427 96.2949 277.148 96.0969L273.874 93.7689C273.594 93.5699 273.426 93.2979 273.367 92.9509C273.307 92.6019 273.378 92.2899 273.577 92.0109L275.959 88.6589C276.157 88.3799 276.429 88.2109 276.778 88.1519C277.125 88.0929 277.437 88.1629 277.717 88.3619L280.991 90.6889ZM294.845 67.9769C296.037 68.8239 297.082 69.8149 297.977 70.9479C298.872 72.0819 299.529 73.2829 299.943 74.5519C300.359 75.8229 300.495 77.1219 300.351 78.4529C300.207 79.7849 299.694 81.0719 298.809 82.3159C298.087 83.3319 297.301 84.1009 296.453 84.6239C295.603 85.1479 294.719 85.5319 293.8 85.7759C292.88 86.0209 291.952 86.1829 291.018 86.2639C290.08 86.3429 289.195 86.4199 288.359 86.4939C287.523 86.5679 286.736 86.7069 286.001 86.9099C285.264 87.1119 284.659 87.4669 284.187 87.9709C283.937 88.2139 283.652 88.3729 283.33 88.4499C283.008 88.5269 282.708 88.4659 282.429 88.2669L279.534 86.2089C279.255 86.0109 279.079 85.7339 279.008 85.3769C278.937 85.0209 279.012 84.7119 279.236 84.4499C279.992 83.4959 280.818 82.7749 281.719 82.2879C282.619 81.8019 283.541 81.4439 284.487 81.2169C285.43 80.9899 286.373 80.8479 287.313 80.7899C288.251 80.7309 289.133 80.6599 289.958 80.5769C290.781 80.4939 291.515 80.3479 292.162 80.1379C292.807 79.9279 293.32 79.5569 293.699 79.0239C294.385 78.0589 294.542 76.9779 294.172 75.7779C293.802 74.5789 292.944 73.5009 291.6 72.5449C289.441 71.0109 287.086 70.9619 284.537 72.3979C284.211 72.5869 283.929 72.7029 283.691 72.7429C283.451 72.7829 283.168 72.6859 282.838 72.4519L279.753 70.2589C279.525 70.0969 279.382 69.8809 279.325 69.6119C279.268 69.3409 279.331 69.0809 279.51 68.8269C280.166 67.9559 281.084 67.2419 282.264 66.6849C283.444 66.1279 284.737 65.7869 286.146 65.6609C287.553 65.5349 289.019 65.6489 290.542 66.0069C292.063 66.3629 293.498 67.0199 294.845 67.9769Z" fill="#25D366"/>
<g opacity="0.6">
<path d="M280.991 90.6889C281.27 90.8879 281.439 91.1609 281.499 91.5079C281.557 91.8559 281.487 92.1689 281.289 92.4479L278.907 95.7989C278.708 96.0789 278.435 96.2479 278.088 96.3059C277.74 96.3659 277.427 96.2949 277.148 96.0969L273.874 93.7689C273.594 93.5699 273.426 93.2979 273.367 92.9509C273.307 92.6019 273.378 92.2899 273.577 92.0109L275.959 88.6589C276.157 88.3799 276.429 88.2109 276.778 88.1519C277.125 88.0929 277.437 88.1629 277.717 88.3619L280.991 90.6889ZM294.845 67.9769C296.037 68.8239 297.082 69.8149 297.977 70.9479C298.872 72.0819 299.529 73.2829 299.943 74.5519C300.359 75.8229 300.495 77.1219 300.351 78.4529C300.207 79.7849 299.694 81.0719 298.809 82.3159C298.087 83.3319 297.301 84.1009 296.453 84.6239C295.603 85.1479 294.719 85.5319 293.8 85.7759C292.88 86.0209 291.952 86.1829 291.018 86.2639C290.08 86.3429 289.195 86.4199 288.359 86.4939C287.523 86.5679 286.736 86.7069 286.001 86.9099C285.264 87.1119 284.659 87.4669 284.187 87.9709C283.937 88.2139 283.652 88.3729 283.33 88.4499C283.008 88.5269 282.708 88.4659 282.429 88.2669L279.534 86.2089C279.255 86.0109 279.079 85.7339 279.008 85.3769C278.937 85.0209 279.012 84.7119 279.236 84.4499C279.992 83.4959 280.818 82.7749 281.719 82.2879C282.619 81.8019 283.541 81.4439 284.487 81.2169C285.43 80.9899 286.373 80.8479 287.313 80.7899C288.251 80.7309 289.133 80.6599 289.958 80.5769C290.781 80.4939 291.515 80.3479 292.162 80.1379C292.807 79.9279 293.32 79.5569 293.699 79.0239C294.385 78.0589 294.542 76.9779 294.172 75.7779C293.802 74.5789 292.944 73.5009 291.6 72.5449C289.441 71.0109 287.086 70.9619 284.537 72.3979C284.211 72.5869 283.929 72.7029 283.691 72.7429C283.451 72.7829 283.168 72.6859 282.838 72.4519L279.753 70.2589C279.525 70.0969 279.382 69.8809 279.325 69.6119C279.268 69.3409 279.331 69.0809 279.51 68.8269C280.166 67.9559 281.084 67.2419 282.264 66.6849C283.444 66.1279 284.737 65.7869 286.146 65.6609C287.553 65.5349 289.019 65.6489 290.542 66.0069C292.063 66.3629 293.498 67.0199 294.845 67.9769Z" fill="white"/>
</g>
<path d="M206.526 179.212H170.999V93.1274C170.999 77.5604 183.619 64.9395 199.187 64.9395H202.47C218.038 64.9395 230.658 77.5594 230.658 93.1274V155.082C230.657 168.409 219.853 179.212 206.526 179.212Z" fill="#263238"/>
<path d="M167.545 386.439C167.253 388.601 166.632 391.125 166.516 397.243C166.392 403.801 165.187 406.129 165.027 411.512C164.845 417.662 165.907 419.964 168.403 423.42C170.899 426.877 177.449 430.014 180.217 424.17C183.019 418.257 182.629 414.5 181.744 408.466C180.829 402.229 180.713 398.784 180.182 394.027C179.715 389.834 179.155 386.649 179.155 386.649L167.545 386.439Z" fill="#263238"/>
<path d="M186.162 342.869L164.558 342.477C164.879 356.899 167.171 372.907 167.545 386.438C167.615 388.985 167.481 406.231 168.442 411.472C169.885 419.346 179.232 418.283 179.728 413.57C180.224 408.858 179.126 388.725 179.156 386.648C179.074 377.97 183.141 363.321 185.274 347.743C185.378 346.978 186.063 343.615 186.162 342.869Z" fill="#FFA8A7"/>
<path d="M213.914 375.215C213.914 375.215 213.061 374.757 212.885 375.667C212.676 376.75 212.364 378.982 211.914 380.76C211.289 383.231 210.769 387.301 211.144 389.314C211.519 391.327 216.213 393.919 219.26 394.855C223.756 396.235 226.841 398.49 229.304 400.808C232.322 403.649 238.835 406.332 243.27 406.3C248.518 406.262 252.177 404.552 253.906 401.742C255.712 398.807 252.33 398.591 246.332 394.7C244.97 393.816 243.42 392.817 241.676 391.678C232.174 385.471 228.695 382.145 226.007 375.937L213.914 375.215Z" fill="#263238"/>
<path d="M226.082 371.373C225.922 366.907 228.985 329.027 228.985 329.027L208.468 338.38C212.862 364.603 213.798 370.787 213.876 375.078C213.842 375.178 213.755 375.542 213.76 376.177C213.779 381.272 219.528 384.019 224.013 387.416C225.785 388.757 230.937 392.719 236.143 395.335C239.402 396.973 246.019 397.122 246.839 395.025C241.381 390.857 233.443 384.62 229.102 379.86C227.029 377.586 226.242 375.838 226.082 371.373Z" fill="#FFA8A7"/>
<path d="M173.411 202.156C165.535 219.454 165.535 232.83 166.837 254.9C168.031 275.145 169.935 292.967 169.935 292.967C169.63 296.56 164.637 303.57 163.991 319.445C163.387 334.287 165.013 353.154 165.013 353.154C165.013 353.154 176.221 359.366 184.509 353.1C184.509 353.1 192.506 314.911 194.85 296.333C196.895 280.12 200.449 259.404 200.449 259.404L207.977 296.245C207.977 296.245 205.113 305.328 204.443 312.247C203.384 323.175 209.496 344.633 209.496 344.633C209.496 344.633 221.077 348.089 228.15 341.817C228.15 341.817 230.795 306.929 231.782 293.764C233.104 276.136 230.324 228.413 228.149 203.149L173.411 202.156Z" fill="#455A64"/>
<path d="M200.449 259.405L203.561 231.673C203.561 231.673 217.502 229.81 223.817 223.873C223.817 223.873 219.072 232.567 207.391 234.254L202.892 260.059L207.978 296.246L200.449 259.405Z" fill="#263238"/>
<path d="M256.897 195.342C257.765 186.842 257.732 181.179 257.657 180.09C257.353 175.689 256.566 174.973 250.413 167.175C242.107 156.647 235.018 147.185 227.519 137.771C222.166 131.05 216.539 130.016 211.043 130.32C207.2 130.533 214.697 149.002 218.474 159.931L240.025 183.111C240.688 184.026 240.993 185.153 240.882 186.277L239.559 206.011L246.013 214.644C246.013 214.644 255.786 206.218 256.897 195.342Z" fill="#FFA8A7"/>
<path d="M190.281 130.918C186.113 131.205 178.533 131.872 178.533 131.872C174.159 134.313 173.054 136.314 172.24 142.123C171.894 144.594 173.908 151.188 175.638 160.556L178.921 177.93L178.565 186.546C176.861 191.803 173.006 198.338 169.611 207.97C186.307 217.288 200.31 217.633 213.009 216.003C222.693 214.76 227.817 212.416 229.525 210.102C229.169 200.586 228.496 194.711 228.331 184.769C228.262 180.593 228.513 176.38 228.675 171.574C235.172 166.237 235.246 157.362 231.702 151.625C223.469 138.296 215.464 129.904 210.162 130.334L190.281 130.918Z" fill="#25D366"/>
<path opacity="0.6" d="M190.281 130.918C186.113 131.205 178.533 131.872 178.533 131.872C174.159 134.313 173.054 136.314 172.24 142.123C171.894 144.594 173.908 151.188 175.638 160.556L178.921 177.93L178.565 186.546C176.861 191.803 173.006 198.338 169.611 207.97C186.307 217.288 200.31 217.633 213.009 216.003C222.693 214.76 227.817 212.416 229.525 210.102C229.169 200.586 228.496 194.711 228.331 184.769C228.262 180.593 228.513 176.38 228.675 171.574C235.172 166.237 235.246 157.362 231.702 151.625C223.469 138.296 215.464 129.904 210.162 130.334L190.281 130.918Z" fill="white"/>
<path opacity="0.1" d="M215.751 171.719C215.751 171.719 208.125 177.637 199.422 174.551C190.72 171.465 189.449 163.857 189.449 163.857C189.449 163.857 188.525 173.806 199.503 177.199C210.098 180.472 215.751 171.719 215.751 171.719Z" fill="black"/>
<path d="M226.091 103.61C225.763 118.047 221.077 121.616 218.729 122.641C216.381 123.666 211.848 123.041 207.45 122.313V130.977C207.45 130.977 212.526 136.299 212.146 140.267C211.757 144.245 204.169 144.686 198.468 140.8C194.307 137.966 191.335 134.726 190.038 133.189C189.566 132.63 189.311 131.928 189.311 131.196V110.808C189.311 110.808 186.901 113.361 182.636 110.439C178.381 107.527 178.012 102.092 180.616 99.0158C182.472 96.8318 187.189 96.6778 189.455 100.072C190.726 102.564 190.901 105.066 192.326 104.03C196.13 101.292 194.09 95.0678 198.683 91.9918C198.693 91.9918 198.693 91.9818 198.703 91.9818C200.077 91.2438 201.636 90.5458 203.379 89.9408C211.572 87.1108 218.668 84.7318 220.38 79.1328C223.609 81.0508 226.491 86.5778 226.091 103.61Z" fill="#FFA8A7"/>
<path d="M209.944 116.509C210.99 116.509 211.839 115.66 211.839 114.614C211.839 113.567 210.99 112.719 209.944 112.719C208.897 112.719 208.049 113.567 208.049 114.614C208.049 115.66 208.897 116.509 209.944 116.509Z" fill="#B16668"/>
<path d="M208.675 101.422C208.733 102.567 207.886 103.536 206.785 103.589C205.683 103.641 204.744 102.756 204.686 101.611C204.629 100.467 205.475 99.4965 206.577 99.4435C207.678 99.3925 208.618 100.278 208.675 101.422Z" fill="#263238"/>
<path d="M223.831 101.618C223.884 102.658 223.114 103.54 222.112 103.587C221.011 103.639 220.262 102.934 220.204 101.79C220.152 100.75 220.921 99.8683 221.923 99.8203C222.925 99.7733 223.779 100.578 223.831 101.618Z" fill="#263238"/>
<path d="M206.108 106.563C202.522 106.563 199.604 103.645 199.604 100.059C199.604 95.6367 204.161 95.6367 206.108 95.6367C208.055 95.6367 212.612 95.6367 212.612 100.059C212.612 103.646 209.694 106.563 206.108 106.563ZM206.108 96.6627C202.166 96.6627 200.63 97.6147 200.63 100.06C200.63 103.081 203.087 105.538 206.108 105.538C209.129 105.538 211.586 103.081 211.586 100.06C211.586 97.6147 210.05 96.6627 206.108 96.6627Z" fill="#455A64"/>
<path d="M222.618 106.563C219.032 106.563 216.114 103.645 216.114 100.059C216.114 95.6367 220.671 95.6367 222.618 95.6367C224.565 95.6367 229.122 95.6367 229.122 100.059C229.122 103.646 226.204 106.563 222.618 106.563ZM222.618 96.6627C218.676 96.6627 217.14 97.6147 217.14 100.06C217.14 103.081 219.597 105.538 222.618 105.538C225.639 105.538 228.096 103.081 228.096 100.06C228.096 97.6147 226.56 96.6627 222.618 96.6627Z" fill="#455A64"/>
<path d="M213.621 97.9609L213.941 110.107L220.334 108.126L213.621 97.9609Z" fill="#F28F8F"/>
<path d="M207.446 122.311C202.803 121.702 193.251 118.958 191.763 115.182C191.763 115.182 192.259 117.555 195.112 120.001C197.965 122.446 207.446 125.202 207.446 125.202V122.311Z" fill="#F28F8F"/>
<path d="M207.665 92.0632L203.429 94.6452C202.735 93.4262 203.121 91.8602 204.291 91.1472C205.461 90.4342 206.972 90.8442 207.665 92.0632Z" fill="#263238"/>
<path d="M224.921 94.943L220.202 93.295C220.612 91.964 222 91.255 223.303 91.71C224.606 92.164 225.33 93.612 224.921 94.943Z" fill="#263238"/>
<path d="M212.097 100.575C211.814 100.575 211.585 100.341 211.585 100.057C211.585 99.2255 213.231 98.6875 214.708 98.6875C216.185 98.6875 217.139 99.2255 217.139 100.057C217.139 100.34 216.91 100.57 216.626 100.57C216.343 100.57 216.113 100.341 216.113 100.057C216.067 99.9635 215.594 99.7135 214.707 99.7135C213.82 99.7135 212.656 99.9635 212.608 100.066C212.609 100.35 212.38 100.575 212.097 100.575Z" fill="#455A64"/>
<path d="M200.133 100.143C200.114 100.143 200.095 100.142 200.075 100.14L188.644 99.0988C188.439 98.9088 187.898 98.3498 186.771 97.8828L200.189 99.1208C200.47 99.1518 200.673 99.4058 200.642 99.6878C200.612 99.9488 200.39 100.143 200.133 100.143Z" fill="#455A64"/>
<path d="M153.203 112.056C156.941 107.062 159.49 103.288 162.902 99.0065C164.839 96.5755 166.078 94.8405 167.942 92.3465C169.225 90.6295 169.977 89.1815 171.399 88.6495C172.999 88.0505 174.542 86.8665 175.571 85.7855C176.306 85.0125 176.908 84.1255 177.544 83.2685C179.68 80.3895 182.232 77.8195 185.095 75.6625C188.104 73.3955 191.447 71.6665 194.534 69.5065C196.376 68.2175 198.351 66.0765 196.109 64.0785C195.44 63.4815 194.59 63.1255 193.714 62.9345C188.273 61.7455 183.525 63.6215 178.203 64.9825C175.89 65.5735 173.614 66.3145 171.426 67.2715C170.364 67.7355 169.305 68.2405 168.425 68.9935C167.053 70.1675 166.232 71.8385 165.341 73.4075C162.948 77.6235 157.991 81.3435 154.502 84.6255C150.409 88.4755 146.751 92.0055 142.082 96.2535C137.88 100.077 133.769 103.602 129.915 107.777C126.727 111.231 127.887 113.933 128.341 114.866C130.939 120.21 133.848 122.126 137.323 125.436C143.342 131.17 164.074 147.664 170.952 153.108C172.424 154.273 173.58 155.784 174.323 157.508L175.636 160.558C183.476 162.001 188.707 150.23 182.214 136.057C181.161 133.758 179.49 131.801 177.447 130.311C169.264 124.341 153.203 112.056 153.203 112.056Z" fill="#FFA8A7"/>
<path d="M153.203 112.055C153.203 112.055 149.658 116.794 143.621 118.65C143.621 118.65 148.622 119.926 155.467 113.783L153.203 112.055Z" fill="#F28F8F"/>
<path d="M254.861 184.907L254.887 184.91L253.605 183.805L253.604 183.821C253.315 183.589 252.866 183.516 252.286 183.674L238.401 187.451C237.114 187.801 235.717 189.106 235.281 190.366L225.289 219.195C225.058 219.863 225.15 220.378 225.473 220.668L225.462 220.672L226.784 221.811L226.783 221.794C227.071 222.034 227.525 222.111 228.114 221.951L241.999 218.175C243.286 217.825 244.683 216.519 245.119 215.259C247.082 209.592 253.15 192.095 255.112 186.429C255.358 185.718 255.236 185.184 254.861 184.907Z" fill="#455A64"/>
<path d="M226.573 220.302L236.565 191.473C237.001 190.213 238.398 188.908 239.685 188.558L253.57 184.782C254.857 184.432 255.546 185.17 255.11 186.43C253.148 192.096 247.08 209.593 245.118 215.26C244.682 216.52 243.284 217.826 241.998 218.176L228.113 221.952C226.826 222.3 226.137 221.562 226.573 220.302Z" fill="#25D366"/>
<path d="M238.176 189.358C237.453 189.929 236.831 190.715 236.565 191.476L226.57 220.296C226.354 220.943 226.418 221.45 226.709 221.742L225.466 220.676L225.479 220.663C225.149 220.371 225.06 219.864 225.289 219.192L235.284 190.359C235.525 189.649 236.096 188.926 236.768 188.355L238.176 189.358Z" fill="#37474F"/>
<path d="M251.045 198.044C250.066 200.981 246.577 202.94 240.842 204.299C235.107 205.658 231.93 211.748 232.856 213.601C233.783 215.454 243.05 217.175 246.757 216.646C250.464 216.116 254.193 210.758 255.315 209.1C256.437 207.442 257.745 195.861 256.554 194.273C255.362 192.684 252.859 192.928 252.859 192.928L251.045 198.044Z" fill="#F28F8F"/>
</svg>
