<svg width="53" height="58" viewBox="0 0 53 58" fill="none" xmlns="http://www.w3.org/2000/svg">
<path d="M51.535 36.6279C51.2796 36.6279 51.0347 36.7294 50.8541 36.91C50.6735 37.0905 50.5721 37.3355 50.5721 37.5909V44.3313C50.5695 46.629 49.6557 48.8318 48.031 50.4565C46.4063 52.0812 44.2034 52.9951 41.9058 52.9977H29.3877C29.1323 52.9977 28.8874 53.0991 28.7068 53.2797C28.5263 53.4603 28.4248 53.7052 28.4248 53.9606C28.4248 54.216 28.5263 54.4609 28.7068 54.6415C28.8874 54.8221 29.1323 54.9235 29.3877 54.9235H41.9058C44.714 54.9203 47.4063 53.8033 49.392 51.8176C51.3778 49.8319 52.4948 47.1396 52.4979 44.3313V37.5909C52.4979 37.3355 52.3965 37.0905 52.2159 36.91C52.0353 36.7294 51.7904 36.6279 51.535 36.6279Z" fill="#275C45"/>
<path d="M47.6832 30.8507C47.4278 30.8507 47.1829 30.7493 47.0023 30.5687C46.8217 30.3881 46.7203 30.1432 46.7203 29.8878V22.1844C46.7203 16.8213 44.5898 11.6779 40.7976 7.88568C37.0053 4.09343 31.8619 1.96296 26.4988 1.96296C21.1358 1.96296 15.9924 4.09343 12.2001 7.88568C8.40788 11.6779 6.27741 16.8213 6.27741 22.1844V29.8878C6.27741 30.1432 6.17596 30.3881 5.99538 30.5687C5.8148 30.7493 5.56987 30.8507 5.31449 30.8507C5.0591 30.8507 4.81418 30.7493 4.6336 30.5687C4.45301 30.3881 4.35156 30.1432 4.35156 29.8878V22.1844C4.35156 16.3106 6.68493 10.6773 10.8384 6.5239C14.9918 2.37048 20.625 0.0371094 26.4988 0.0371094C32.3727 0.0371094 38.0059 2.37048 42.1593 6.5239C46.3128 10.6773 48.6461 16.3106 48.6461 22.1844V29.8878C48.6461 30.1432 48.5447 30.3881 48.3641 30.5687C48.1835 30.7493 47.9386 30.8507 47.6832 30.8507Z" fill="#275C45"/>
<path d="M49.6096 28.9248H43.8321C43.5767 28.9248 43.3318 29.0263 43.1512 29.2068C42.9706 29.3874 42.8691 29.6323 42.8691 29.8877V39.517C42.8691 39.7724 42.9706 40.0173 43.1512 40.1979C43.3318 40.3785 43.5767 40.4799 43.8321 40.4799H49.6096C50.3755 40.4791 51.1098 40.1744 51.6514 39.6329C52.1929 39.0913 52.4976 38.357 52.4984 37.5911V31.8136C52.4976 31.0477 52.1929 30.3134 51.6514 29.7718C51.1098 29.2303 50.3755 28.9256 49.6096 28.9248Z" fill="#96E3B9"/>
<path d="M9.16633 28.9248H3.38878C2.62288 28.9256 1.8886 29.2303 1.34703 29.7718C0.805464 30.3134 0.500841 31.0477 0.5 31.8136V37.5911C0.500841 38.357 0.805464 39.0913 1.34703 39.6329C1.8886 40.1744 2.62288 40.4791 3.38878 40.4799H9.16633C9.42171 40.4799 9.66664 40.3785 9.84722 40.1979C10.0278 40.0173 10.1293 39.7724 10.1293 39.517V29.8877C10.1293 29.6323 10.0278 29.3874 9.84722 29.2068C9.66664 29.0263 9.42171 28.9248 9.16633 28.9248Z" fill="#96E3B9"/>
<path d="M36.9638 2.61656C35.5065 1.80554 33.9503 1.1869 32.334 0.776122C27.2534 -0.605223 21.8468 -0.132073 17.0834 2.11078C12.3199 4.35363 8.51085 8.21957 6.33887 13.0158L9.73684 16.4132C9.8494 16.5257 9.98811 16.6086 10.1405 16.6544C10.293 16.7002 10.4544 16.7075 10.6103 16.6756C10.7663 16.6438 10.9119 16.5737 11.0342 16.4718C11.1564 16.3699 11.2515 16.2393 11.3109 16.0916C12.5263 13.0575 14.6226 10.4569 17.3296 8.62516C20.0366 6.7934 23.2302 5.81441 26.4987 5.81441C29.7672 5.81441 32.9608 6.7934 35.6678 8.62516C38.3748 10.4569 40.4711 13.0575 41.6864 16.0916C41.7457 16.2394 41.8408 16.3701 41.963 16.4721C42.0853 16.5741 42.2309 16.6442 42.3869 16.6761C42.5429 16.7079 42.7044 16.7006 42.8569 16.6547C43.0093 16.6088 43.148 16.5258 43.2605 16.4132L46.6552 13.0179C44.6386 8.59125 41.237 4.94054 36.9638 2.61656Z" fill="#275C45"/>
<path d="M26.4992 57.8128C28.6264 57.8128 30.3509 56.0883 30.3509 53.9611C30.3509 51.8338 28.6264 50.1094 26.4992 50.1094C24.3719 50.1094 22.6475 51.8338 22.6475 53.9611C22.6475 56.0883 24.3719 57.8128 26.4992 57.8128Z" fill="#275C45"/>
<path d="M15.9065 23.1475H11.0919C9.49647 23.1475 8.20312 24.4408 8.20312 26.0362V43.3689C8.20312 44.9643 9.49647 46.2577 11.0919 46.2577H15.9065C17.502 46.2577 18.7953 44.9643 18.7953 43.3689V26.0362C18.7953 24.4408 17.502 23.1475 15.9065 23.1475Z" fill="#96E3B9"/>
<path d="M41.9056 23.1475H37.0909C35.4955 23.1475 34.2021 24.4408 34.2021 26.0362V43.3689C34.2021 44.9643 35.4955 46.2577 37.0909 46.2577H41.9056C43.501 46.2577 44.7943 44.9643 44.7943 43.3689V26.0362C44.7943 24.4408 43.501 23.1475 41.9056 23.1475Z" fill="#96E3B9"/>
</svg>
