<svg width="38" height="54" viewBox="0 0 38 54" fill="none" xmlns="http://www.w3.org/2000/svg">
<path d="M28.8012 19.9773H8.82395C8.38243 19.9773 7.95899 19.8019 7.64678 19.4897C7.33458 19.1775 7.15918 18.754 7.15918 18.3125V11.6534C7.15918 8.56273 8.38695 5.59864 10.5724 3.4132C12.7578 1.22777 15.7219 0 18.8126 0C21.9033 0 24.8674 1.22777 27.0528 3.4132C29.2382 5.59864 30.466 8.56273 30.466 11.6534V18.3125C30.466 18.754 30.2906 19.1775 29.9784 19.4897C29.6662 19.8019 29.2428 19.9773 28.8012 19.9773ZM10.4887 16.6477H27.1365V11.6534C27.1365 9.44578 26.2595 7.32858 24.6985 5.76755C23.1374 4.20652 21.0202 3.32955 18.8126 3.32955C16.605 3.32955 14.4878 4.20652 12.9267 5.76755C11.3657 7.32858 10.4887 9.44578 10.4887 11.6534V16.6477Z" fill="#275C45"/>
<path d="M30.4659 16.6475H7.15909C3.48138 16.6475 0.5 19.6288 0.5 23.3066V46.6134C0.5 50.2911 3.48138 53.2725 7.15909 53.2725H30.4659C34.1436 53.2725 37.125 50.2911 37.125 46.6134V23.3066C37.125 19.6288 34.1436 16.6475 30.4659 16.6475Z" fill="#96E3B9"/>
<path d="M26.884 29.5594C26.5209 28.0996 25.7648 26.7673 24.6977 25.7071C23.6306 24.6469 22.2934 23.8994 20.8314 23.5457C19.5955 23.2429 18.307 23.2252 17.0633 23.494C15.8195 23.7629 14.6533 24.3112 13.6529 25.0974C12.6526 25.887 11.8472 26.8958 11.2986 28.046C10.75 29.1962 10.473 30.4571 10.4889 31.7313C10.5049 33.0055 10.8133 34.2591 11.3905 35.3952C11.9677 36.5313 12.7982 37.5196 13.8179 38.2839V41.6191C13.8179 42.9437 14.3441 44.214 15.2807 45.1507C16.2173 46.0873 17.4876 46.6135 18.8122 46.6135C20.1368 46.6135 21.4071 46.0873 22.3437 45.1507C23.2803 44.214 23.8065 42.9437 23.8065 41.6191V38.2856C25.1239 37.2976 26.1193 35.9416 26.667 34.3886C27.2147 32.8356 27.2902 31.1552 26.884 29.5594Z" fill="#275C45"/>
</svg>
